<?xml version="1.0" encoding="utf-8"?>
<!-- Generator: Adobe Illustrator 16.0.0, SVG Export Plug-In . SVG Version: 6.00 Build 0)  -->
<!DOCTYPE svg PUBLIC "-//W3C//DTD SVG 1.1//EN" "http://www.w3.org/Graphics/SVG/1.1/DTD/svg11.dtd">
<svg version="1.1" xmlns="http://www.w3.org/2000/svg" xmlns:xlink="http://www.w3.org/1999/xlink" x="0px" y="0px"
	 width="1643.997px" height="1873.664px" viewBox="0 0 1643.997 1873.664" enable-background="new 0 0 1643.997 1873.664"
	 xml:space="preserve">
<linearGradient id="gradientColor" gradientUnits="userSpaceOnUse" x1="360.0005" y1="100%" x2="360.0005" y2="4.882813e-004">
	<stop id="gradientColor2" offset="0" stop-color="#FFFFFF" />
	<stop id="gradientColor1" offset="1" stop-color="#000000" />
</linearGradient>
<g id="Main_Back_Color">
	
		<path fill-rule="evenodd" clip-rule="evenodd" fill="#F0EFEF" stroke="#010101" stroke-width="1.4998" stroke-miterlimit="2.6131" d="
		M630.735,0.913L378.092,52.854C389.084,196.263,432.076,461.829,249,570.524v1256.737h1141.023l5.25-1256.737
		c-183.076-108.695-140.086-374.262-129.092-517.671L1013.525,0.913c-51.189,79.721-78.269,75.241-191.399,74.496
		C708.994,76.152,681.915,80.633,630.735,0.913z"/>
</g>
<g id="Main_Color">
	
		<path id="Jersey_Front_Color" fill-rule="evenodd" clip-rule="evenodd" fill="#FFFFFF" stroke="#010101" stroke-width="1.4998" stroke-miterlimit="2.6131" d="
		M1012.728,0.913l252.731,51.942c-10.993,143.408-53.984,408.975,129.094,517.67l-4.776,1256.737
		c-204.18,0-426.868,48.941-570.152,45.36c-232.239,4.974-357.29-55.406-571.021-45.061l-0.324-1257.037
		C431.356,461.829,388.365,196.263,377.373,52.854L630.017,0.913c8.883,225.157,79.378,375.188,191.312,469.942
		C933.261,376.101,1003.756,226.069,1012.728,0.913z M1415.791,1827.756h227.456V628.636h-227.456V1827.756z M0.75,1828.477h227.456
		V629.356H0.75V1828.477z"/>
</g>

<g id="Trim1">
	<path id="Trim_1" fill-rule="evenodd" clip-rule="evenodd" fill="#818181" d="M431.146,41.947l0.521,6.803
		c2.957,38.575,7.052,76.992,9.571,115.627c3.054,46.831,4.184,93.949,0.798,140.796c-9.12,126.162-51.74,243.938-165.601,311.538
		L249,633v-62.476C432.076,461.829,389.084,196.263,378.092,52.854L431.146,41.947L431.146,41.947z M1213.126,41.947l-0.521,6.803
		c-2.957,38.575-7.052,76.992-9.57,115.627c-3.054,46.831-4.184,93.949-0.799,140.796c9.119,126.162,51.739,243.938,165.601,311.538
		L1395.273,633v-62.476c-183.076-108.695-140.086-374.262-129.092-517.671L1213.126,41.947L1213.126,41.947z M1013.361,0.913
		c-8.885,225.157-79.379,375.188-191.313,469.942C710.115,376.101,639.62,226.068,630.736,0.913l-53.308,10.956
		c8.773,187.754,61.451,374.316,209.899,499.98l34.722,29.393l34.724-29.393c148.446-125.664,201.124-312.226,209.897-499.98
		L1013.361,0.913z"/>
</g>
<g id="Shadow">
	<path opacity="0.21" fill-rule="evenodd" clip-rule="evenodd" fill="#010101" d="M477.807,154.929
		c18.484-6.466,33.123-25.934,50.489-41.065c-19.791,21.206-40.323,47.114-59.374,63.618
		C474.56,171.29,478.492,164.256,477.807,154.929L477.807,154.929z M1110.512,174.679c-9.214,4.805-28.265,4.805-42.169,8.107
		C1081.945,178.632,1098.171,178.132,1110.512,174.679L1110.512,174.679z M568.338,294.178
		c-15.726-32.091-47.109-57.011-83.833-79.483C514.011,239.196,542.602,264.866,568.338,294.178L568.338,294.178z M503.496,178.781
		c13.766,18.415,41.35,27.468,77.176,30.933C551.71,204.086,526.002,193.752,503.496,178.781L503.496,178.781z M554.947,236.242
		c12.341,3.454,28.566,3.954,42.169,8.108C583.212,241.048,564.162,241.048,554.947,236.242L554.947,236.242z M468.406,131.347
		c37.266-15.053,59.09-41.303,75.808-71.257C522.203,88.153,497.524,112.687,468.406,131.347L468.406,131.347z M1161.962,117.218
		c-13.765,18.414-41.35,27.467-77.175,30.932C1113.749,142.522,1139.458,132.188,1161.962,117.218L1161.962,117.218z
		 M477.277,1485.312c-27.615,114.583-51.218,230.15-70.164,346.86c9.139,0.935,18.2,1.949,27.202,3.035
		C442.225,1718.226,456.09,1601.568,477.277,1485.312L477.277,1485.312z M466.726,1594.893
		c-6.675,81.443-10.025,162.784-4.754,243.861c-3.596-0.485-7.195-0.965-10.802-1.434
		C447.93,1754.859,455.316,1674.481,466.726,1594.893L466.726,1594.893z M1161.051,1485.312
		c27.853,115.569,51.625,232.14,70.652,349.873c-9.188,0.816-18.364,1.676-27.52,2.573
		C1196.304,1719.922,1182.392,1602.414,1161.051,1485.312L1161.051,1485.312z M1171.602,1594.893
		c6.726,82.063,10.078,164.024,4.634,245.716c3.607-0.382,7.218-0.759,10.834-1.132
		C1190.525,1756.261,1183.111,1675.176,1171.602,1594.893L1171.602,1594.893z M368.615,1205.191
		c-32.757-52.369-65.801-139.403-98.272-157.109c-6.803,125.249-0.245,231.272,18.854,319.248
		c-38.612-87.118-41.99-249.354-39.384-437.235c-0.199,0.11-0.398,0.222-0.596,0.335l-0.144-264.599
		c67.183-51.596,129.363-113.523,182.833-193.449c-25.67,64.002-70.698,125.533-131.411,185.063
		c13.296-6.023,25.557-13.171,35.423-22.923c0.777,12.03-4.764,21.706-11.998,30.751c41.146-30.796,88.549-56.053,145.694-72.684
		c-92.177,43.309-170.109,90.881-141.695,102.316c-37.155,26.851-37.218,52.075,18.854,55.351
		c-112.57,11.492-111.973,48.518,49.708,121.886l-75.418-19.01c61.196,58.165,150.964,87.019,259.394,96.727
		c-74.905,3.175-146.398-14.168-215.971-43.051c-27.895,10.553-57.046,12.185-87.988,1.118l5.143,14.536
		c-8.407-0.253-18.769,1.583-27.767,5.608C281.269,1028.756,330.92,1112.396,368.615,1205.191L368.615,1205.191z M1276.681,1205.191
		c32.758-52.369,65.801-139.403,98.273-157.109c6.803,125.249,0.245,231.272-18.854,319.248
		c38.611-87.118,41.989-249.354,39.384-437.235c0.199,0.11,0.398,0.222,0.596,0.335l0.145-264.599
		c-67.184-51.596-129.364-113.523-182.834-193.449c25.67,64.002,70.698,125.533,131.412,185.063
		c-13.297-6.023-25.559-13.171-35.424-22.923c-0.777,12.03,4.764,21.706,11.998,30.751c-41.146-30.796-88.55-56.053-145.695-72.684
		c92.178,43.309,170.109,90.881,141.695,102.316c37.155,26.851,37.219,52.075-18.854,55.351
		c112.571,11.492,111.974,48.518-49.708,121.886l75.418-19.01c-61.195,58.165-150.964,87.019-259.393,96.727
		c74.904,3.175,146.397-14.168,215.971-43.051c27.894,10.553,57.046,12.185,87.988,1.118l-5.143,14.536
		c8.406-0.253,18.768,1.583,27.766,5.608C1364.028,1028.756,1314.376,1112.396,1276.681,1205.191L1276.681,1205.191z
		 M1097.121,232.614c25.737-29.311,54.328-54.982,83.834-79.484C1144.23,175.604,1112.847,200.523,1097.121,232.614z"/>
</g>
<g id="Neck_Back">
	<path fill-rule="evenodd" clip-rule="evenodd" fill="#818181" d="M638.249,92.756c48.07,39.657,99.525,36.367,183.876,36.367
		c84.288,0,135.729,3.285,183.767-36.278c3.73-29.128,6.271-59.723,7.553-91.854c-51.127,79.637-78.225,75.162-191.318,74.417
		c-113.131,0.746-140.21,5.226-191.371-74.495l-0.018,0.003C632.004,33.042,634.532,63.632,638.249,92.756z"/>
</g>
<g id="Border">
	
		<rect x="390.136" y="253.662" fill-rule="evenodd" clip-rule="evenodd" fill="none" stroke="#010101" stroke-width="0.375" stroke-miterlimit="2.6131" width="864" height="1512"/>
</g>
</svg>
