<?xml version="1.0" encoding="utf-8"?>
<!-- Generator: Adobe Illustrator 16.0.0, SVG Export Plug-In . SVG Version: 6.00 Build 0)  -->
<!DOCTYPE svg PUBLIC "-//W3C//DTD SVG 1.1//EN" "http://www.w3.org/Graphics/SVG/1.1/DTD/svg11.dtd">
<svg version="1.1" xmlns="http://www.w3.org/2000/svg" xmlns:xlink="http://www.w3.org/1999/xlink" x="0px" y="0px"
	 width="1153.504px" height="1873.663px" viewBox="0 0 1153.504 1873.663" enable-background="new 0 0 1153.504 1873.663"
	 xml:space="preserve">
<linearGradient id="gradientColor" gradientUnits="userSpaceOnUse" x1="360.0005" y1="100%" x2="360.0005" y2="4.882813e-004">
	<stop id="gradientColor2" offset="0" stop-color="#FFFFFF" />
	<stop id="gradientColor1" offset="1" stop-color="#000000" />
</linearGradient>
<g id="Main_Color">
	
		<path id="Jersey_Back_Color" fill-rule="evenodd" clip-rule="evenodd" fill="#FFFFFF" stroke="#010101" stroke-width="1.4998" stroke-miterlimit="2.6131" d="
		M385.195,1.15L132.343,53.092C143.344,196.5,186.37,462.066,3.143,570.76v628.091l-2.39,628.402
		c0.801-0.038,1.591-0.066,2.39-0.104v0.343c198.774,0,381.844,49.238,574.207,45.122c183.632,4.585,380.903-45.122,573.013-45.122
		v-628.567l2.39-628.402c-183.229-108.695-140.202-374.261-129.2-517.668L770.611,0.913c-0.009,0.237-0.021,0.47-0.031,0.707
		L768.3,1.15c-51.231,79.721-78.333,75.241-191.559,74.496C465.429,76.377,437.354,80.715,387.77,5.115
		c-0.061-1.402-0.129-2.794-0.185-4.202l-2.245,0.461L385.195,1.15z"/>
</g>
<g id="Trim1">
	<path  id="Trim_1" fill-rule="evenodd" clip-rule="evenodd" fill="#818181" d="M185.44,41.465l0.521,6.803
		c2.96,38.575,7.06,76.992,9.579,115.626c3.056,46.832,4.188,93.948,0.799,140.794c-9.127,126.162-51.781,243.936-165.736,311.538
		l-27.46,16.289V570.04c183.228-108.694,140.201-374.26,129.2-517.668L185.44,41.465L185.44,41.465z M970.226,41.465l-0.521,6.803
		c-2.96,38.575-7.058,76.992-9.579,115.626c-3.056,46.832-4.188,93.948-0.799,140.794c9.127,126.162,51.782,243.936,165.737,311.538
		l27.459,16.289V570.04c-183.229-108.695-140.201-374.26-129.2-517.668L970.226,41.465L970.226,41.465z M329.487,12.024
		l11.183,17.412c67.663,105.347,121.556,99.204,236.79,99.204c115.236,0,169.129,6.143,236.79-99.204l11.184-17.412L768.99,0.431
		c-51.202,79.72-78.304,75.24-191.529,74.495c-113.226,0.745-140.325,5.226-191.528-74.495L329.487,12.024z"/>
</g>
<g id="Shadow">
	<path opacity="0.21" fill-rule="evenodd" clip-rule="evenodd" fill="#010101" d="M242.015,155.165
		c18.484-6.466,33.122-25.935,50.489-41.065c-19.791,21.206-40.323,47.114-59.374,63.618
		C238.767,171.526,242.699,164.491,242.015,155.165L242.015,155.165z M874.72,174.914c-9.215,4.805-28.265,4.805-42.17,8.108
		C846.152,178.868,862.378,178.367,874.72,174.914L874.72,174.914z M926.17,117.453c-13.765,18.415-41.35,27.468-77.175,30.933
		C877.956,142.758,903.665,132.424,926.17,117.453L926.17,117.453z M232.613,131.583c37.266-15.053,59.09-41.303,75.808-71.257
		C286.41,88.389,261.731,112.923,232.613,131.583L232.613,131.583z M319.154,236.478c9.215,4.805,28.265,4.805,42.169,8.108
		C347.722,240.432,331.496,239.931,319.154,236.478L319.154,236.478z M267.703,179.017c13.766,18.415,41.351,27.468,77.176,30.933
		C315.918,204.322,290.209,193.988,267.703,179.017L267.703,179.017z M332.546,294.413c-25.737-29.311-54.328-54.982-83.834-79.483
		C285.437,237.403,316.819,262.323,332.546,294.413L332.546,294.413z M861.327,232.85c25.738-29.311,54.328-54.982,83.835-79.483
		C908.437,175.839,877.055,200.759,861.327,232.85L861.327,232.85z M914.514,1489.124c27.736,114.994,51.43,230.977,70.425,348.111
		c-9.117,0.938-18.234,1.92-27.35,2.936C949.686,1722.805,935.787,1605.764,914.514,1489.124L914.514,1489.124z M122.478,1192.772
		c-32.725-52.37-65.732-139.403-98.171-157.109c-6.795,125.248-0.245,231.271,18.835,319.246
		C4.57,1267.794,1.195,1105.562,3.799,917.685c-0.202,0.107-0.401,0.216-0.595,0.327L3.061,653.414
		c67.112-51.596,129.229-113.523,182.642-193.449c-25.643,64.002-70.624,125.533-131.274,185.063
		c13.282-6.023,25.531-13.171,35.387-22.923c0.776,12.03-4.76,21.706-11.985,30.751c41.104-30.796,88.457-56.053,145.543-72.684
		C131.292,623.48,53.44,671.053,81.824,682.487c-37.116,26.852-37.179,52.076,18.835,55.352
		c-112.453,11.492-111.856,48.517,49.656,121.885L41.302,839.596c12.046,36.919,68.618,59.622,159.24,73.243
		c-14.25,7.771-154.041-11.587-170.085-17.331l13.698,17.891c-8.517-1.7-25.386-1.253-36.227,2.519
		C35.309,1016.483,84.854,1100.058,122.478,1192.772L122.478,1192.772z M1031.053,1192.772
		c32.724-52.37,65.732-139.403,98.171-157.109c6.795,125.248,0.245,231.271-18.835,319.246
		c38.571-87.115,41.946-249.348,39.343-437.225c0.202,0.107,0.401,0.216,0.595,0.327l0.144-264.598
		c-67.112-51.596-129.229-113.523-182.642-193.449c25.643,64.002,70.624,125.533,131.274,185.063
		c-13.282-6.023-25.531-13.171-35.387-22.923c-0.776,12.03,4.76,21.706,11.985,30.751c-41.104-30.796-88.458-56.053-145.544-72.684
		c92.082,43.308,169.933,90.881,141.549,102.315c37.116,26.852,37.179,52.076-18.835,55.352
		c112.453,11.492,111.855,48.517-49.657,121.885l109.015-20.128c-12.047,36.919-68.618,59.622-159.24,73.243
		c14.249,7.771,154.041-11.587,170.085-17.331l-13.698,17.891c8.517-1.7,25.386-1.253,36.227,2.519
		C1118.222,1016.483,1068.676,1100.058,1031.053,1192.772L1031.053,1192.772z M230.175,1487.334
		c-28.326,117.438-52.437,235.91-71.631,355.587h28.252C194.646,1724.032,208.627,1605.477,230.175,1487.334L230.175,1487.334z
		 M925.073,1598.705c6.702,81.71,10.057,163.317,4.706,244.659c3.607-0.425,7.215-0.847,10.823-1.264
		C943.941,1759.301,936.537,1678.605,925.073,1598.705L925.073,1598.705z M219.615,1596.914
		c-6.731,82.067-10.087,164.031-4.637,245.726l-10.773,0.559C200.573,1759.387,208.019,1677.743,219.615,1596.914z"/>
</g>
<g id="Border">
	
		<rect x="144.753" y="129.407" fill-rule="evenodd" clip-rule="evenodd" fill="none" stroke="#010101" stroke-width="0.375" stroke-miterlimit="2.6131" width="864" height="1512"/>
</g>
</svg>
